<?xml version="1.0" standalone="no"?>
<!DOCTYPE svg PUBLIC "-//W3C//DTD SVG 20010904//EN"
 "http://www.w3.org/TR/2001/REC-SVG-20010904/DTD/svg10.dtd">
<svg version="1.0" xmlns="http://www.w3.org/2000/svg"
 width="920.000000pt" height="390.000000pt" viewBox="0 0 920.000000 390.000000"
 preserveAspectRatio="xMidYMid meet">
<metadata>
Created by potrace 1.15, written by Peter Selinger 2001-2017
</metadata>
<g transform="translate(0.000000,390.000000) scale(0.100000,-0.100000)"
fill="#000000" stroke="none">
<path d="M4287 3333 c-4 -3 -7 -79 -7 -169 l0 -162 -207 -4 c-240 -6 -290 -17
-352 -79 -65 -65 -76 -119 -75 -359 1 -222 8 -257 60 -325 14 -19 51 -47 82
-62 l57 -28 328 -3 327 -4 0 601 0 601 -103 0 c-57 0 -107 -3 -110 -7z m-7
-763 l0 -230 -175 0 c-111 0 -183 4 -200 12 -38 17 -47 69 -43 246 l3 154 28
24 c27 23 32 24 208 24 l179 0 0 -230z"/>
<path d="M4810 3235 l0 -105 105 0 105 0 0 105 0 105 -105 0 -105 0 0 -105z"/>
<path d="M7620 2850 c0 -424 2 -496 16 -537 23 -68 58 -109 121 -140 53 -25
66 -27 224 -31 l169 -5 0 102 0 101 -129 0 c-123 0 -131 1 -158 24 l-28 24 -3
476 -3 476 -104 0 -105 0 0 -490z"/>
<path d="M1150 2675 l0 -536 113 3 112 3 3 173 2 172 165 0 164 0 136 -175
136 -175 134 0 c74 0 135 2 135 4 0 2 -61 79 -135 172 -111 139 -132 170 -118
176 10 3 40 14 66 23 63 23 110 71 133 137 16 43 19 82 18 208 0 175 -12 216
-75 277 -72 68 -67 68 -551 71 l-438 3 0 -536z m753 326 c76 -13 82 -24 82
-152 0 -159 22 -149 -326 -149 l-279 0 0 155 0 155 238 -1 c130 0 259 -4 285
-8z"/>
<path d="M2735 2989 c-114 -19 -180 -71 -211 -167 -25 -78 -26 -442 -1 -510
25 -66 64 -109 125 -139 l57 -28 328 -3 327 -4 0 431 0 431 -287 -1 c-159 -1
-311 -5 -338 -10z m405 -419 l0 -230 -175 0 c-111 0 -183 4 -200 12 -38 17
-47 69 -43 246 l3 154 28 24 c27 23 32 24 208 24 l179 0 0 -230z"/>
<path d="M4810 2570 l0 -430 105 0 105 0 0 430 0 430 -105 0 -105 0 0 -430z"/>
<path d="M5532 2989 c-93 -16 -156 -60 -198 -139 -17 -31 -19 -60 -19 -280 0
-232 1 -247 22 -285 30 -56 79 -99 138 -121 44 -17 79 -19 280 -19 228 0 230
0 287 27 67 31 110 85 128 159 7 27 10 52 7 55 -3 3 -51 10 -108 16 -110 12
-104 13 -135 -39 -10 -16 -29 -18 -177 -21 -165 -3 -167 -3 -191 21 -20 20
-25 38 -31 112 -9 99 1 258 16 287 17 31 53 38 206 38 l146 0 33 -36 34 -35
94 7 c52 3 100 10 106 14 10 6 10 18 1 56 -26 106 -94 164 -211 183 -77 13
-352 12 -428 0z"/>
<path d="M6682 2989 c-93 -16 -156 -60 -198 -139 -17 -31 -19 -60 -19 -280 0
-232 1 -247 21 -285 25 -46 67 -91 104 -110 53 -27 149 -35 432 -35 l288 0 0
430 0 430 -287 -1 c-159 -1 -312 -5 -341 -10z m418 -419 l0 -230 -185 0 c-182
0 -186 0 -210 24 -30 30 -39 98 -33 254 4 123 15 157 51 172 12 5 102 9 200 9
l177 1 0 -230z"/>
<path d="M5990 1635 l0 -105 105 0 105 0 0 105 0 105 -105 0 -105 0 0 -105z"/>
<path d="M650 1075 l0 -535 400 0 c408 0 470 5 540 40 47 24 74 55 102 115 23
49 23 57 23 375 0 368 -4 396 -73 463 -75 73 -66 72 -554 75 l-438 3 0 -536z
m798 317 c13 -7 27 -24 32 -38 14 -36 13 -527 -1 -557 -20 -44 -44 -47 -329
-47 l-270 0 0 331 0 331 273 -4 c199 -2 278 -7 295 -16z"/>
<path d="M2232 1390 c-128 -20 -200 -92 -222 -221 -18 -106 -9 -411 14 -463
28 -67 66 -107 125 -135 55 -26 58 -26 291 -26 226 0 237 1 287 24 61 27 115
82 134 137 10 29 14 99 14 264 0 194 -3 232 -18 272 -22 56 -87 118 -144 137
-46 15 -402 24 -481 11z m409 -219 c17 -21 19 -41 19 -203 0 -177 0 -179 -25
-203 -24 -24 -28 -25 -182 -25 -87 0 -168 3 -181 6 -43 12 -52 50 -52 223 0
168 7 201 44 220 13 6 85 10 189 8 164 -2 169 -3 188 -26z"/>
<path d="M3170 971 l0 -431 105 0 105 0 0 331 0 330 166 -3 c160 -3 166 -4
185 -27 18 -22 19 -43 19 -327 l0 -304 110 0 109 0 3 306 3 306 28 24 c26 22
36 24 147 24 128 0 162 -9 179 -47 7 -16 11 -124 11 -318 l0 -295 110 0 110 0
0 288 c0 321 -7 386 -48 451 -58 95 -119 116 -342 116 -151 0 -169 -2 -215
-23 -27 -13 -60 -32 -72 -44 l-22 -20 -43 31 c-24 17 -59 36 -78 43 -21 6
-141 13 -302 15 l-268 5 0 -431z"/>
<path d="M5062 1389 c-93 -16 -156 -60 -198 -139 -17 -31 -19 -60 -19 -280 0
-232 1 -247 21 -285 25 -46 67 -91 104 -110 53 -27 149 -35 432 -35 l288 0 0
430 0 430 -287 -1 c-159 -1 -312 -5 -341 -10z m418 -419 l0 -230 -185 0 c-182
0 -186 0 -210 24 -30 30 -39 98 -33 254 4 123 15 157 51 172 12 5 102 9 200 9
l177 1 0 -230z"/>
<path d="M5990 970 l0 -430 105 0 105 0 0 430 0 430 -105 0 -105 0 0 -430z"/>
<path d="M6500 971 l0 -431 105 0 105 0 0 330 0 330 178 0 c122 0 185 -4 202
-13 44 -22 49 -60 49 -364 l1 -283 105 0 106 0 -3 338 c-3 324 -4 339 -25 378
-28 53 -92 110 -140 125 -25 8 -147 13 -360 16 l-323 5 0 -431z"/>
<path d="M7854 1390 c-60 -9 -130 -39 -163 -70 -40 -39 -54 -87 -54 -186 -1
-81 2 -96 27 -138 35 -59 87 -94 162 -106 32 -6 143 -10 246 -10 213 0 218 -2
218 -75 0 -71 -13 -75 -222 -75 -187 0 -198 3 -213 50 -6 18 -15 20 -111 20
-103 0 -104 0 -104 -24 0 -36 27 -106 57 -144 14 -19 50 -46 82 -61 55 -26 58
-26 291 -26 253 0 285 5 358 52 63 41 82 88 82 200 0 105 -14 146 -65 196 -53
52 -94 60 -342 66 -160 4 -226 10 -235 19 -7 7 -13 31 -13 53 0 31 6 46 24 60
21 17 41 19 200 19 97 0 181 -4 188 -8 6 -4 16 -20 22 -35 10 -25 15 -27 63
-27 29 0 77 3 106 7 l54 6 -7 36 c-3 20 -19 59 -34 86 -37 66 -94 101 -186
115 -79 11 -354 11 -431 0z"/>
</g>
</svg>
